<svg xmlns="http://www.w3.org/2000/svg" xmlns:xlink="http://www.w3.org/1999/xlink" width="73.531" height="32.601" viewBox="0 0 73.531 32.601">
  <defs>
    <linearGradient id="linear-gradient" y1="0.5" x2="1" y2="0.5" gradientUnits="objectBoundingBox">
      <stop offset="0" stop-color="#ffde3e"/>
      <stop offset="0.25" stop-color="#ff793e"/>
      <stop offset="0.5" stop-color="#ff31fa"/>
      <stop offset="0.751" stop-color="#8733ff"/>
      <stop offset="1" stop-color="#221dff"/>
    </linearGradient>
    <linearGradient id="linear-gradient-3" x1="-0.248" y1="0.5" x2="0.934" y2="0.5" gradientUnits="objectBoundingBox">
      <stop offset="0.21" stop-color="#ff31fa"/>
      <stop offset="0.586" stop-color="#8733ff"/>
      <stop offset="0.732" stop-color="#5827ba"/>
      <stop offset="0.855" stop-color="#361e88"/>
      <stop offset="0.947" stop-color="#211969"/>
      <stop offset="0.999" stop-color="#1a175e"/>
    </linearGradient>
    <linearGradient id="linear-gradient-4" x1="0.098" y1="0.5" x2="1.098" y2="0.5" gradientUnits="objectBoundingBox">
      <stop offset="0.14" stop-color="#ff31fa" stop-opacity="0"/>
      <stop offset="0.428" stop-color="#8733ff"/>
      <stop offset="0.546" stop-color="#5827ba"/>
      <stop offset="0.645" stop-color="#361e88"/>
      <stop offset="0.719" stop-color="#211969"/>
      <stop offset="0.761" stop-color="#1a175e"/>
    </linearGradient>
    <linearGradient id="linear-gradient-5" x1="0.828" y1="0.796" x2="-0.237" y2="-0.216" gradientUnits="objectBoundingBox">
      <stop offset="0" stop-color="#221dff"/>
      <stop offset="0.321" stop-color="#8733ff"/>
      <stop offset="0.815" stop-color="#ff31fa"/>
      <stop offset="0.968" stop-color="#ff793e"/>
      <stop offset="1" stop-color="#ffde3e"/>
    </linearGradient>
    <linearGradient id="linear-gradient-6" x1="0.924" y1="1.045" x2="0.116" y2="0.006" gradientUnits="objectBoundingBox">
      <stop offset="0.003" stop-color="#1d254f"/>
      <stop offset="0.05" stop-color="#282557"/>
      <stop offset="0.135" stop-color="#47276f"/>
      <stop offset="0.248" stop-color="#792995"/>
      <stop offset="0.382" stop-color="#be2dc8"/>
      <stop offset="0.498" stop-color="#ff31fa"/>
      <stop offset="1" stop-color="#ffde3e"/>
    </linearGradient>
  </defs>
  <g id="OBJECTS" transform="translate(0 0)">
    <g id="Group_2" data-name="Group 2">
      <g id="Group_1" data-name="Group 1">
        <path id="Path_1" data-name="Path 1" d="M248.6,174.384c-9.182,0-15.134-5.95-20.89-11.7l-4.594-4.594h0c-5.269-5.22-8.991-8.377-14.276-8.377a9.221,9.221,0,0,0-6.479,2.5,8.2,8.2,0,0,0,0,11.754,9.221,9.221,0,0,0,6.479,2.5,12.4,12.4,0,0,0,6.487-1.828l-1.88-1.88h-4.133a3.8,3.8,0,0,1-3.792-3.792v-4.133h9.046a5.186,5.186,0,0,1,3.692,1.529l6.489,6.489a3.243,3.243,0,0,1-.153,4.732c-6.856,6-11.811,6.809-15.754,6.809-9.469,0-16.886-7.16-16.886-16.3s7.417-16.3,16.886-16.3c9.182,0,15.134,5.95,20.89,11.7l4.7,4.7c5.213,5.157,8.92,8.272,14.17,8.272a9.221,9.221,0,0,0,6.479-2.5,8.2,8.2,0,0,0,0-11.753,9.221,9.221,0,0,0-6.479-2.5c-3.472,0-6.41,1.3-10.141,4.5a3.74,3.74,0,0,1-5.077-.193l-3.087-3.087,1.085-1.009c5.249-4.882,10.187-8.134,17.22-8.134,9.469,0,16.886,7.16,16.886,16.3S258.066,174.384,248.6,174.384Z" transform="translate(-191.952 -141.783)" fill="url(#linear-gradient)"/>
        <path id="Path_2" data-name="Path 2" d="M248.6,174.384c-9.182,0-15.134-5.95-20.89-11.7l-4.594-4.594h0c-5.269-5.22-8.991-8.377-14.276-8.377a9.221,9.221,0,0,0-6.479,2.5,8.2,8.2,0,0,0,0,11.754,9.221,9.221,0,0,0,6.479,2.5,12.4,12.4,0,0,0,6.487-1.828l-1.88-1.88h-4.133a3.8,3.8,0,0,1-3.792-3.792v-4.133h9.046a5.186,5.186,0,0,1,3.692,1.529l6.489,6.489a3.243,3.243,0,0,1-.153,4.732c-6.856,6-11.811,6.809-15.754,6.809-9.469,0-16.886-7.16-16.886-16.3s7.417-16.3,16.886-16.3c9.182,0,15.134,5.95,20.89,11.7l4.7,4.7c5.213,5.157,8.92,8.272,14.17,8.272a9.221,9.221,0,0,0,6.479-2.5,8.2,8.2,0,0,0,0-11.753,9.221,9.221,0,0,0-6.479-2.5c-3.472,0-6.41,1.3-10.141,4.5a3.74,3.74,0,0,1-5.077-.193l-3.087-3.087,1.085-1.009c5.249-4.882,10.187-8.134,17.22-8.134,9.469,0,16.886,7.16,16.886,16.3S258.066,174.384,248.6,174.384Z" transform="translate(-191.952 -141.783)" fill="url(#linear-gradient)"/>
        <path id="Path_3" data-name="Path 3" d="M388.564,158.771a3.748,3.748,0,0,0,2.436-.9c3.731-3.195,6.669-4.5,10.141-4.5a9.22,9.22,0,0,1,6.479,2.5,8.109,8.109,0,0,1,2.482,5.861,3.08,3.08,0,0,1-.044.884c2.15-9.437-6.407-20.291-18.565-14.736h0q-.241.129-.48.265l-.016.009q-.232.132-.462.269l-.03.018q-.225.135-.447.274l-.041.026q-.218.137-.434.279l-.054.035q-.211.139-.42.282l-.065.045q-.2.14-.407.284l-.077.055q-.2.141-.394.286l-.088.066q-.191.142-.382.287l-.1.078q-.184.141-.367.286l-.118.093q-.176.14-.352.282l-.134.109q-.167.137-.335.277l-.154.13c-.105.089-.21.177-.316.267l-.181.156-.289.251-.22.195-.253.225-.271.245-.2.185q-.239.218-.478.441l-1.085,1.009,3.088,3.087A3.711,3.711,0,0,0,388.564,158.771Z" transform="translate(-344.496 -145.446)" fill="url(#linear-gradient-3)"/>
        <path id="Path_4" data-name="Path 4" d="M222.909,228c-1.747.621-5.607,2-8.265,2.944l.736.736a12.4,12.4,0,0,1-6.487,1.828,9.221,9.221,0,0,1-6.479-2.5,8.092,8.092,0,0,1-2.462-5.326h-7.932c.292,8.875,7.6,15.749,16.872,15.749,3.943,0,8.9-.809,15.754-6.809a3.243,3.243,0,0,0,.153-4.732Z" transform="translate(-192.007 -208.833)" fill="url(#linear-gradient-4)"/>
        <path id="Path_5" data-name="Path 5" d="M278.727,214.732l-6.489-6.489a5.186,5.186,0,0,0-3.692-1.529H259.5l7.926,7.926,1.88,1.88c3.234,3.234,3.549,7.28.015,8.7a24.2,24.2,0,0,0,5.7-2.98l0,0a38.691,38.691,0,0,0,3.547-2.776,3.243,3.243,0,0,0,.153-4.732Z" transform="translate(-245.933 -193.673)" fill="url(#linear-gradient-5)"/>
        <path id="Path_6" data-name="Path 6" d="M288.358,171.82c-4.84,2.622-10.069-.328-14.221-4.48l-9.153-9.153-4.7-4.7c-5.756-5.754-11.708-11.7-20.89-11.7a17.446,17.446,0,0,0-9.206,2.565c6.431-3.73,11.789,2.044,15.53,5.785l7.952,7.952,0,0,4.591,4.591c5.756,5.754,11.708,11.7,20.89,11.7A17.445,17.445,0,0,0,288.358,171.82Z" transform="translate(-222.508 -141.783)" fill="url(#linear-gradient-6)"/>
      </g>
    </g>
  </g>
</svg>
