<svg xmlns="http://www.w3.org/2000/svg" xmlns:xlink="http://www.w3.org/1999/xlink" width="181.869" height="80.634" viewBox="0 0 181.869 80.634">
  <defs>
    <linearGradient id="linear-gradient" y1="0.5" x2="1" y2="0.5" gradientUnits="objectBoundingBox">
      <stop offset="0" stop-color="#ffde3e"/>
      <stop offset="0.25" stop-color="#ff793e"/>
      <stop offset="0.5" stop-color="#ff31fa"/>
      <stop offset="0.751" stop-color="#8733ff"/>
      <stop offset="1" stop-color="#221dff"/>
    </linearGradient>
    <linearGradient id="linear-gradient-3" x1="-0.248" y1="0.5" x2="0.934" y2="0.5" gradientUnits="objectBoundingBox">
      <stop offset="0.21" stop-color="#ff31fa"/>
      <stop offset="0.586" stop-color="#8733ff"/>
      <stop offset="0.732" stop-color="#5827ba"/>
      <stop offset="0.855" stop-color="#361e88"/>
      <stop offset="0.947" stop-color="#211969"/>
      <stop offset="0.999" stop-color="#1a175e"/>
    </linearGradient>
    <linearGradient id="linear-gradient-4" x1="0.098" y1="0.5" x2="1.098" y2="0.5" gradientUnits="objectBoundingBox">
      <stop offset="0.14" stop-color="#ff31fa" stop-opacity="0"/>
      <stop offset="0.428" stop-color="#8733ff"/>
      <stop offset="0.546" stop-color="#5827ba"/>
      <stop offset="0.645" stop-color="#361e88"/>
      <stop offset="0.719" stop-color="#211969"/>
      <stop offset="0.761" stop-color="#1a175e"/>
    </linearGradient>
    <linearGradient id="linear-gradient-5" x1="0.828" y1="0.796" x2="-0.237" y2="-0.216" gradientUnits="objectBoundingBox">
      <stop offset="0" stop-color="#221dff"/>
      <stop offset="0.321" stop-color="#8733ff"/>
      <stop offset="0.815" stop-color="#ff31fa"/>
      <stop offset="0.968" stop-color="#ff793e"/>
      <stop offset="1" stop-color="#ffde3e"/>
    </linearGradient>
    <linearGradient id="linear-gradient-6" x1="0.924" y1="1.045" x2="0.116" y2="0.006" gradientUnits="objectBoundingBox">
      <stop offset="0.003" stop-color="#1d254f"/>
      <stop offset="0.05" stop-color="#282557"/>
      <stop offset="0.135" stop-color="#47276f"/>
      <stop offset="0.248" stop-color="#792995"/>
      <stop offset="0.382" stop-color="#be2dc8"/>
      <stop offset="0.498" stop-color="#ff31fa"/>
      <stop offset="1" stop-color="#ffde3e"/>
    </linearGradient>
  </defs>
  <g id="OBJECTS" transform="translate(0 0)">
    <g id="Group_2" data-name="Group 2">
      <g id="Group_1" data-name="Group 1">
        <path id="Path_1" data-name="Path 1" d="M332.056,222.417c-22.71,0-37.431-14.717-51.668-28.948l-11.362-11.362h0c-13.032-12.91-22.237-20.719-35.309-20.719a22.806,22.806,0,0,0-16.024,6.178,20.278,20.278,0,0,0,0,29.071,22.808,22.808,0,0,0,16.024,6.178,30.659,30.659,0,0,0,16.044-4.521l-4.651-4.65H234.888a9.39,9.39,0,0,1-9.38-9.38V174.039h22.374a12.828,12.828,0,0,1,9.131,3.782l16.05,16.05a8.021,8.021,0,0,1-.38,11.7c-16.957,14.84-29.213,16.841-38.966,16.841-23.42,0-41.766-17.709-41.766-40.317s18.346-40.317,41.766-40.317c22.71,0,37.431,14.717,51.668,28.948l11.623,11.623c12.893,12.756,22.063,20.459,35.047,20.459a22.807,22.807,0,0,0,16.025-6.178,20.278,20.278,0,0,0,0-29.071,22.806,22.806,0,0,0-16.024-6.178c-8.587,0-15.854,3.223-25.083,11.125a9.25,9.25,0,0,1-12.557-.476l-7.636-7.637,2.684-2.5c12.983-12.076,25.2-20.12,42.592-20.12,23.42,0,41.766,17.71,41.766,40.317S355.476,222.417,332.056,222.417Z" transform="translate(-191.952 -141.783)" fill="url(#linear-gradient)"/>
        <path id="Path_2" data-name="Path 2" d="M332.056,222.417c-22.71,0-37.431-14.717-51.668-28.948l-11.362-11.362h0c-13.032-12.91-22.237-20.719-35.309-20.719a22.806,22.806,0,0,0-16.024,6.178,20.278,20.278,0,0,0,0,29.071,22.808,22.808,0,0,0,16.024,6.178,30.659,30.659,0,0,0,16.044-4.521l-4.651-4.65H234.888a9.39,9.39,0,0,1-9.38-9.38V174.039h22.374a12.828,12.828,0,0,1,9.131,3.782l16.05,16.05a8.021,8.021,0,0,1-.38,11.7c-16.957,14.84-29.213,16.841-38.966,16.841-23.42,0-41.766-17.709-41.766-40.317s18.346-40.317,41.766-40.317c22.71,0,37.431,14.717,51.668,28.948l11.623,11.623c12.893,12.756,22.063,20.459,35.047,20.459a22.807,22.807,0,0,0,16.025-6.178,20.278,20.278,0,0,0,0-29.071,22.806,22.806,0,0,0-16.024-6.178c-8.587,0-15.854,3.223-25.083,11.125a9.25,9.25,0,0,1-12.557-.476l-7.636-7.637,2.684-2.5c12.983-12.076,25.2-20.12,42.592-20.12,23.42,0,41.766,17.71,41.766,40.317S355.476,222.417,332.056,222.417Z" transform="translate(-191.952 -141.783)" fill="url(#linear-gradient)"/>
        <path id="Path_3" data-name="Path 3" d="M397,177.047a9.27,9.27,0,0,0,6.024-2.228c9.229-7.9,16.5-11.125,25.083-11.125a22.805,22.805,0,0,1,16.024,6.178,20.056,20.056,0,0,1,6.138,14.5,7.619,7.619,0,0,1-.11,2.185c5.319-23.342-15.847-50.187-45.917-36.449h0q-.6.32-1.186.655l-.039.022q-.575.326-1.144.666l-.075.045q-.556.333-1.107.679l-.1.064q-.538.338-1.073.689l-.133.087q-.521.343-1.039.7l-.161.111q-.5.347-1.006.7l-.191.136q-.488.35-.975.708l-.219.162q-.472.351-.944.71l-.25.193q-.454.35-.909.707l-.291.231q-.435.346-.869.7l-.33.271q-.414.34-.829.685c-.128.106-.255.215-.382.322-.26.219-.521.438-.781.661l-.447.386c-.238.207-.477.412-.716.622-.181.158-.363.321-.544.481-.209.185-.418.369-.627.556s-.448.4-.671.607c-.169.153-.337.3-.506.458q-.591.539-1.183,1.09l-2.684,2.5,7.637,7.637A9.178,9.178,0,0,0,397,177.047Z" transform="translate(-288.008 -144.09)" fill="url(#linear-gradient-3)"/>
        <path id="Path_4" data-name="Path 4" d="M268.418,231.412c-4.32,1.535-13.868,4.938-20.441,7.281l1.821,1.82a30.66,30.66,0,0,1-16.045,4.521,22.807,22.807,0,0,1-16.024-6.178,20.014,20.014,0,0,1-6.089-13.172H192.021c.722,21.951,18.786,38.954,41.732,38.954,9.753,0,22.009-2,38.966-16.841a8.021,8.021,0,0,0,.38-11.7Z" transform="translate(-191.987 -184.004)" fill="url(#linear-gradient-4)"/>
        <path id="Path_5" data-name="Path 5" d="M307.055,226.546,291,210.5a12.828,12.828,0,0,0-9.131-3.782H259.5l19.6,19.6,4.651,4.65c8,8,8.778,18.007.038,21.516a59.845,59.845,0,0,0,14.107-7.37l0,0a95.7,95.7,0,0,0,8.772-6.866,8.021,8.021,0,0,0,.379-11.7Z" transform="translate(-225.943 -174.458)" fill="url(#linear-gradient-5)"/>
        <path id="Path_6" data-name="Path 6" d="M374.065,216.075c-11.971,6.486-24.905-.811-35.175-11.081l-22.64-22.64-11.623-11.623c-14.237-14.232-28.958-28.948-51.668-28.948a43.151,43.151,0,0,0-22.771,6.344c15.905-9.225,29.159,5.057,38.411,14.309l19.669,19.669.006.009,11.354,11.354c14.237,14.232,28.958,28.948,51.668,28.948A43.148,43.148,0,0,0,374.065,216.075Z" transform="translate(-211.193 -141.783)" fill="url(#linear-gradient-6)"/>
      </g>
    </g>
  </g>
</svg>
